<svg width="20" height="20" fill="none" xmlns="http://www.w3.org/2000/svg"><path d="M8.652 2.222a.5.5 0 00-.354.147l-.631.63H3.5A.5.5 0 003 3.5v.556a.5.5 0 00.5.5h13a.5.5 0 00.5-.5V3.5a.5.5 0 00-.5-.5h-4.167l-.631-.631a.5.5 0 00-.354-.147H8.652zm-4.03 3.89a.5.5 0 00-.496.556l1.124 9.76a1.56 1.56 0 001.542 1.35h6.415c.776 0 1.44-.58 1.543-1.357l1.124-9.753a.5.5 0 00-.497-.557H4.623z" fill="#606483"/><path stroke="#fff" stroke-linecap="round" d="M12.566 15.442l.876-7.008m-6.008 7.008l-.876-7.008M10 15.5v-7"/></svg>